<svg xmlns="http://www.w3.org/2000/svg" width="94" height="92" viewBox="0 0 94 92" role="img" aria-labelledby="logoTitle logoDesc">
  <title id="logoTitle">CloudBox icon</title>
  <desc id="logoDesc">Minimal cloud and box icon</desc>
  <defs>
    <linearGradient id="cloudGrad" x1="0%" y1="0%" x2="0%" y2="100%">
      <stop offset="0%" stop-color="#a8a299"/>
      <stop offset="100%" stop-color="#817d77"/>
    </linearGradient>
  </defs>
  <g transform="translate(12 10)">
    <path d="M22 18c0-5.5 4.5-10 10-10 2.6 0 5.1 1.1 7.2 2.8 2-2 4.8-3 7.6-3 7.3 0 13.2 6 13.2 13.2 0 .3 0 .7-.03 1a8.7 8.7 0 0 1 3.4 7.1 8.7 8.7 0 0 1-8.7 8.7H14c-4.4 0-8-3.6-8-8 0-4 3-7.3 6.8-7.9A9.7 9.7 0 0 1 22 18Z" fill="none" stroke="url(#cloudGrad)" stroke-width="10" stroke-linecap="round" stroke-linejoin="round"/>
    <path d="M12 30h40a6 6 0 0 1 6 6v18a6 6 0 0 1-6 6H12a6 6 0 0 1-6-6V36a6 6 0 0 1 6-6Z" fill="#dcd8d2"/>
    <path d="M12 30a6 6 0 0 0-6 6v18a6 6 0 0 0 6 6h40a6 6 0 0 0 6-6V36a6 6 0 0 0-6-6H12Z" fill="#dcd8d2"/>
    <path d="M12 30h40l-8-8H18a6 6 0 0 0-6 6Z" fill="#b8b4ae"/>
    <rect x="20" y="46" width="18" height="6" rx="3" fill="#494543"/>
  </g>
</svg>
